<svg width="75" height="75" viewBox="0 0 75 75" fill="none" xmlns="http://www.w3.org/2000/svg">
<path d="M27.1369 75C15.9747 74.9357 6.74146 52.1498 6.74146 40.5455C6.74146 21.5898 20.9614 17.4399 26.4417 17.4399C28.9114 17.4399 31.5486 18.4098 33.8746 19.268C35.5012 19.8667 37.1834 20.4847 38.119 20.4847C38.679 20.4847 39.9987 19.959 41.1638 19.4977C43.6486 18.5085 46.7406 17.2791 50.3412 17.2791C50.3477 17.2791 50.3563 17.2791 50.3626 17.2791C53.0512 17.2791 61.203 17.8691 66.104 25.2291L67.252 26.9542L65.5998 28.2009C63.2395 29.9819 58.9328 33.2306 58.9328 39.6658C58.9328 47.2875 63.8102 50.2187 66.1533 51.6285C67.1876 52.2507 68.2583 52.8923 68.2583 54.2956C68.2583 55.2119 60.9455 74.8864 50.3261 74.8864C47.7276 74.8864 45.8909 74.1053 44.2707 73.4165C42.6314 72.7191 41.2173 72.1184 38.8806 72.1184C37.6961 72.1184 36.1983 72.6784 34.6126 73.2728C32.4457 74.0816 29.9929 75 27.2099 75H27.1369Z" fill="black"/>
<path d="M51.4662 0C51.7428 9.97207 44.6112 16.8902 37.488 16.4563C36.3142 8.49829 44.6103 0 51.4662 0Z" fill="black"/>
</svg>
