<svg width="57" height="57" viewBox="0 0 57 57" fill="none" xmlns="http://www.w3.org/2000/svg">
<path d="M49.2273 0H7.77273C3.47997 0 0 3.47997 0 7.77273V49.2273C0 53.52 3.47997 57 7.77273 57H49.2273C53.52 57 57 53.52 57 49.2273V7.77273C57 3.47997 53.52 0 49.2273 0Z" fill="#707170"/>
<g clip-path="url(#clip0_11_121)">
<path d="M32.425 32.4439C31.5543 33.0244 30.5428 33.3312 29.5 33.3312C28.4572 33.3312 27.4458 33.0244 26.575 32.4439L12.233 22.8822C12.1535 22.8292 12.0759 22.7739 12 22.717V38.3848C12 40.1811 13.4578 41.6068 15.222 41.6068H43.7779C45.5743 41.6068 46.9999 40.149 46.9999 38.3848V22.7169C46.9238 22.7739 46.8462 22.8294 46.7664 22.8825L32.425 32.4439Z" fill="white"/>
<path d="M13.3706 21.1758L27.7126 30.7376C28.2555 31.0995 28.8777 31.2805 29.4999 31.2805C30.1222 31.2805 30.7445 31.0994 31.2874 30.7376L45.6294 21.1758C46.4876 20.604 47 19.647 47 18.6141C47 16.838 45.5551 15.3932 43.7791 15.3932H15.2209C13.4449 15.3933 12 16.8381 12 18.6158C12 19.647 12.5124 20.604 13.3706 21.1758Z" fill="white"/>
</g>
<defs>
<clipPath id="clip0_11_121">
<rect width="35" height="35" fill="white" transform="translate(12 11)"/>
</clipPath>
</defs>
</svg>
