<svg width="57" height="57" viewBox="0 0 57 57" fill="none" xmlns="http://www.w3.org/2000/svg">
<path d="M49.2273 0H7.77273C3.47997 0 0 3.47997 0 7.77273V49.2273C0 53.52 3.47997 57 7.77273 57H49.2273C53.52 57 57 53.52 57 49.2273V7.77273C57 3.47997 53.52 0 49.2273 0Z" fill="#29A71A"/>
<path d="M41.0659 15.9342C38.1007 12.9394 34.1629 11.1028 29.9629 10.7556C25.7628 10.4085 21.577 11.5737 18.1603 14.041C14.7437 16.5083 12.3212 20.1153 11.3298 24.2114C10.3385 28.3075 10.8434 32.6231 12.7537 36.3797L10.8785 45.4835C10.8591 45.5741 10.8585 45.6677 10.8769 45.7586C10.8953 45.8494 10.9323 45.9355 10.9854 46.0114C11.0633 46.1266 11.1745 46.2153 11.3041 46.2656C11.4337 46.316 11.5756 46.3256 11.7109 46.2931L20.6333 44.1783C24.3793 46.0402 28.6644 46.5127 32.7261 45.5118C36.7878 44.5108 40.3627 42.1013 42.8146 38.712C45.2665 35.3227 46.4365 31.1734 46.1162 27.0025C45.796 22.8315 44.0064 18.9095 41.0659 15.9342ZM38.2839 38.1383C36.2323 40.1841 33.5904 41.5346 30.7306 41.9994C27.8708 42.4642 24.9372 42.0199 22.3433 40.7292L21.0997 40.1138L15.6296 41.4093L15.6458 41.3413L16.7793 35.8356L16.1705 34.634C14.8451 32.0311 14.3776 29.0754 14.8348 26.1904C15.2921 23.3054 16.6507 20.6392 18.716 18.5736C21.3112 15.9793 24.8305 14.5219 28.5 14.5219C32.1695 14.5219 35.6888 15.9793 38.2839 18.5736C38.306 18.599 38.3298 18.6228 38.3551 18.6449C40.9181 21.2459 42.3489 24.7547 42.3355 28.4062C42.3222 32.0578 40.8658 35.556 38.2839 38.1383Z" fill="white"/>
<path d="M37.7981 34.0997C37.1277 35.1555 36.0687 36.4477 34.7376 36.7683C32.4058 37.3318 28.8271 36.7877 24.374 32.6358L24.3189 32.5872C20.4034 28.9567 19.3865 25.9351 19.6326 23.5385C19.7686 22.1782 20.9022 20.9476 21.8576 20.1444C22.0086 20.0155 22.1877 19.9237 22.3806 19.8764C22.5734 19.8291 22.7747 19.8275 22.9683 19.8719C23.1618 19.9163 23.3423 20.0053 23.4953 20.1319C23.6483 20.2585 23.7695 20.4192 23.8493 20.601L25.2905 23.8397C25.3842 24.0497 25.4189 24.2812 25.3909 24.5094C25.363 24.7376 25.2734 24.9539 25.1318 25.1351L24.4031 26.0808C24.2468 26.2761 24.1524 26.5137 24.1322 26.763C24.112 27.0123 24.1669 27.262 24.2898 27.4799C24.6978 28.1956 25.6759 29.2482 26.7608 30.223C27.9786 31.3241 29.3291 32.3314 30.1841 32.6747C30.4129 32.7681 30.6644 32.7909 30.9063 32.7401C31.1481 32.6893 31.3692 32.5673 31.5411 32.3897L32.3864 31.5379C32.5495 31.3771 32.7523 31.2624 32.9742 31.2055C33.1961 31.1486 33.4291 31.1515 33.6494 31.214L37.0727 32.1856C37.2615 32.2435 37.4346 32.3439 37.5787 32.479C37.7228 32.614 37.8341 32.7803 37.9041 32.965C37.9741 33.1497 38.001 33.3479 37.9826 33.5446C37.9642 33.7413 37.9011 33.9311 37.7981 34.0997Z" fill="white"/>
</svg>
