<svg width="69" height="75" viewBox="0 0 69 75" fill="none" xmlns="http://www.w3.org/2000/svg">
<path d="M53.0112 25.726C44.2986 20.8529 30.3146 13.0278 8.62434 0.88295C7.16199 -0.082821 5.47947 -0.209384 4.02576 0.282658L41.2401 37.497L53.0112 25.726Z" fill="#32BBFF"/>
<path d="M4.02571 0.282715C3.75325 0.375 3.48811 0.486328 3.23455 0.620801C1.62922 1.48916 0.449585 3.16011 0.449585 5.27344V69.7207C0.449585 71.834 1.62908 73.505 3.23455 74.3732C3.48767 74.5075 3.75266 74.6193 4.02483 74.7122L41.2401 37.4971L4.02571 0.282715Z" fill="#32BBFF"/>
<path d="M41.2401 37.4971L4.0249 74.7122C5.47905 75.2079 7.16157 75.091 8.62436 74.1111C29.6592 62.3323 43.4856 54.6 52.299 49.6854C52.5443 49.5476 52.7847 49.4128 53.0223 49.2794L41.2401 37.4971Z" fill="#32BBFF"/>
<path d="M0.449585 37.4971V69.7207C0.449585 71.834 1.62908 73.505 3.23455 74.3732C3.48767 74.5075 3.75266 74.6193 4.02483 74.7122L41.2401 37.4971H0.449585Z" fill="#2C9FD9"/>
<path d="M8.62424 0.882995C6.88767 -0.263685 4.83982 -0.231019 3.2345 0.620934L40.6752 38.0618L53.0109 25.726C44.2985 20.8529 30.3145 13.0279 8.62424 0.882995Z" fill="#29CC5E"/>
<path d="M40.6756 36.9326L3.23462 74.3733C4.84009 75.2251 6.88779 75.2743 8.62436 74.1112C29.6592 62.3324 43.4856 54.6001 52.299 49.6855C52.5443 49.5477 52.7847 49.4129 53.0223 49.2795L40.6756 36.9326Z" fill="#D93F21"/>
<path d="M68.5503 37.497C68.5503 35.7114 67.6493 33.9093 65.8635 32.91C65.8635 32.91 62.5238 31.0466 52.2871 25.3208L40.1108 37.497L52.2989 49.6853C62.4233 44.0006 65.8634 42.0839 65.8634 42.0839C67.6493 41.0847 68.5503 39.2827 68.5503 37.497Z" fill="#FFD500"/>
<path d="M65.8635 42.0841C67.6493 41.0848 68.5503 39.2827 68.5503 37.4971H40.1108L52.2989 49.6853C62.4235 44.0008 65.8635 42.0841 65.8635 42.0841Z" fill="#FFAA00"/>
</svg>
