<svg width="38" height="38" viewBox="0 0 38 38" fill="none" xmlns="http://www.w3.org/2000/svg">
<g clip-path="url(#clip0_18_118)">
<path d="M18.9998 0C8.52471 0 0.00146484 8.52347 0.00146484 19C0.00146484 29.4761 8.5246 38 18.9998 38C29.4762 38 37.9988 29.4761 37.9988 19C37.9988 8.52347 29.4762 0 18.9998 0ZM30.5958 25.2886C30.3245 25.5594 29.9689 25.6961 29.6136 25.6961C29.2576 25.6961 28.9022 25.5594 28.6307 25.2886L18.9998 15.6583L9.36985 25.2886C8.82694 25.8314 7.94595 25.8314 7.40304 25.2886C6.85979 24.7458 6.85979 23.8657 7.40304 23.3228L18.0169 12.7102C18.5605 12.1674 19.4387 12.1674 19.9813 12.7102L30.5952 23.3228C31.1387 23.8657 31.1387 24.7458 30.5958 25.2886Z" fill="#BABABA"/>
</g>
<defs>
<clipPath id="clip0_18_118">
<rect width="38" height="38" fill="white"/>
</clipPath>
</defs>
</svg>
